<svg xmlns="http://www.w3.org/2000/svg" viewBox="0 0 400 1200">
  <path d="M281.7,351.6 L221.2,365.9 L212.2,372.1 L205.9,387.2 L158.9,405.9 L146.3,415.7 L143.6,425.5 L146.3,432.6 L158.0,442.4 L201.4,461.1 L200.5,469.1 L193.2,477.2 L199.5,490.5 L225.7,503.9 L286.2,520.8 L293.5,570.6 L307.9,568.0 L306.1,526.1 L335.0,524.3 L353.0,530.6 L347.6,783.4 L333.2,787.8 L335.0,810.1 L344.0,813.6 L345.8,818.1 L344.0,900.9 L336.8,904.5 L341.3,911.6 L339.5,938.3 L343.1,953.4 L338.6,1007.7 L342.2,1013.9 L340.4,1070.0 L335.0,1076.3 L333.2,1093.2 L339.5,1103.0 L338.6,1159.1 L326.0,1167.1 L322.3,1186.6 L335.0,1189.3 L336.8,1199.1 L375.6,1199.1 L372.9,1088.7 L376.5,901.8 L381.9,896.4 L384.7,682.8 L390.1,680.1 L384.7,674.8 L384.7,654.3 L391.0,650.7 L397.3,654.3 L397.3,674.8 L391.9,680.1 L397.3,682.8 L399.1,694.4 L399.1,347.2 Z" fill="white"/>
</svg>