<svg xmlns="http://www.w3.org/2000/svg" viewBox="0 0 1200 400">
  <path d="M0 400 L0.0 133.1 L1.9 133.1 L3.8 133.1 L5.6 133.1 L7.5 133.2 L9.4 133.4 L11.2 133.6 L13.1 133.9 L15.0 134.1 L16.9 134.2 L18.8 134.1 L20.6 133.8 L22.5 133.5 L24.4 133.1 L26.2 132.6 L28.1 132.3 L30.0 132.0 L31.9 131.8 L33.8 131.8 L35.6 131.8 L37.5 132.0 L39.4 132.2 L41.2 132.5 L43.1 132.7 L45.0 132.9 L46.9 132.9 L48.8 132.7 L50.6 132.5 L52.5 132.2 L54.4 132.0 L56.2 131.8 L58.1 131.7 L60.0 131.7 L61.9 131.7 L63.8 131.8 L65.6 132.0 L67.5 132.4 L69.4 132.9 L71.2 133.4 L73.1 134.1 L75.0 134.6 L76.9 135.1 L78.8 135.4 L80.6 135.6 L82.5 135.6 L84.4 135.3 L86.2 134.8 L88.1 134.1 L90.0 133.4 L91.9 132.7 L93.8 132.2 L95.6 131.9 L97.5 131.7 L99.4 131.7 L101.2 131.7 L103.1 131.6 L105.0 131.6 L106.9 131.4 L108.8 131.1 L110.6 130.5 L112.5 129.7 L114.4 128.7 L116.2 127.7 L118.1 127.1 L120.0 127.0 L121.9 127.2 L123.8 127.8 L125.6 128.6 L127.5 129.2 L129.4 129.7 L131.2 129.9 L133.1 129.9 L135.0 129.6 L136.9 129.3 L138.8 128.9 L140.6 128.5 L142.5 128.1 L144.4 127.8 L146.2 127.6 L148.1 127.6 L150.0 127.5 L151.9 127.6 L153.8 127.7 L155.6 127.9 L157.5 128.2 L159.4 128.8 L161.2 129.5 L163.1 130.2 L165.0 131.0 L166.9 132.0 L168.8 133.7 L170.6 136.8 L172.5 142.0 L174.4 149.1 L176.2 156.6 L178.1 162.0 L180.0 163.4 L181.9 159.6 L183.8 150.1 L185.6 134.0 L187.5 110.6 L189.4 81.1 L191.2 50.0 L193.1 23.8 L195.0 6.7 L196.9 0.0 L198.8 3.1 L200.6 16.0 L202.5 38.0 L204.4 66.5 L206.2 96.9 L208.1 124.6 L210.0 146.8 L211.9 162.0 L213.8 170.8 L215.6 174.7 L217.5 175.2 L219.4 172.8 L221.2 167.5 L223.1 159.7 L225.0 150.9 L226.9 143.0 L228.8 137.6 L230.6 134.8 L232.5 133.6 L234.4 133.2 L236.2 133.1 L238.1 133.1 L240.0 133.1 L241.9 133.1 L243.8 133.0 L245.6 133.0 L247.5 132.8 L249.4 132.5 L251.2 132.0 L253.1 131.2 L255.0 130.3 L256.9 129.3 L258.8 128.6 L260.6 128.0 L262.5 127.6 L264.4 127.4 L266.2 127.0 L268.1 126.5 L270.0 125.8 L271.9 125.0 L273.8 124.3 L275.6 123.8 L277.5 123.6 L279.4 123.5 L281.2 123.7 L283.1 123.9 L285.0 124.2 L286.9 124.4 L288.8 124.6 L290.6 124.7 L292.5 124.7 L294.4 124.7 L296.2 124.8 L298.1 124.9 L300.0 125.0 L301.9 125.3 L303.8 125.5 L305.6 125.8 L307.5 126.0 L309.4 126.1 L311.2 126.1 L313.1 126.1 L315.0 126.1 L316.9 126.1 L318.8 126.1 L320.6 126.0 L322.5 125.8 L324.4 125.5 L326.2 125.1 L328.1 124.7 L330.0 124.3 L331.9 123.9 L333.8 123.5 L335.6 123.2 L337.5 122.8 L339.4 122.5 L341.2 122.1 L343.1 121.8 L345.0 121.4 L346.9 121.1 L348.8 120.9 L350.6 120.7 L352.5 120.6 L354.4 120.6 L356.2 120.6 L358.1 120.7 L360.0 120.9 L361.9 121.1 L363.8 121.3 L365.6 121.5 L367.5 121.4 L369.4 121.2 L371.2 120.8 L373.1 120.3 L375.0 119.9 L376.9 119.7 L378.8 119.7 L380.6 119.9 L382.5 120.3 L384.4 120.8 L386.2 121.2 L388.1 121.4 L390.0 121.4 L391.9 121.3 L393.8 120.9 L395.6 120.5 L397.5 120.1 L399.4 119.8 L401.2 119.5 L403.1 119.3 L405.0 119.2 L406.9 119.2 L408.8 119.2 L410.6 119.2 L412.5 119.2 L414.4 119.3 L416.2 119.5 L418.1 119.8 L420.0 120.1 L421.9 120.5 L423.8 121.0 L425.6 121.3 L427.5 121.6 L429.4 121.8 L431.2 122.0 L433.1 122.2 L435.0 122.5 L436.9 122.9 L438.8 123.3 L440.6 123.8 L442.5 124.2 L444.4 124.7 L446.2 125.1 L448.1 125.5 L450.0 125.8 L451.9 126.0 L453.8 126.0 L455.6 126.1 L457.5 126.0 L459.4 126.0 L461.2 125.8 L463.1 125.6 L465.0 125.3 L466.9 125.2 L468.8 125.2 L470.6 125.5 L472.5 125.9 L474.4 126.3 L476.2 126.8 L478.1 127.1 L480.0 127.2 L481.9 127.1 L483.8 126.8 L485.6 126.3 L487.5 125.8 L489.4 125.3 L491.2 124.8 L493.1 124.3 L495.0 123.8 L496.9 123.3 L498.8 122.9 L500.6 122.5 L502.5 122.1 L504.4 121.8 L506.2 121.4 L508.1 121.1 L510.0 120.7 L511.9 120.4 L513.8 120.0 L515.6 119.7 L517.5 119.5 L519.4 119.3 L521.2 119.2 L523.1 119.0 L525.0 118.8 L526.9 118.6 L528.8 118.3 L530.6 117.9 L532.5 117.6 L534.4 117.3 L536.2 116.9 L538.1 116.7 L540.0 116.5 L541.9 116.4 L543.8 116.4 L545.6 116.4 L547.5 116.4 L549.4 116.5 L551.2 116.7 L553.1 117.0 L555.0 117.3 L556.9 117.8 L558.8 118.2 L560.6 118.5 L562.5 118.8 L564.4 119.0 L566.2 119.1 L568.1 119.1 L570.0 119.2 L571.9 119.2 L573.8 119.3 L575.6 119.5 L577.5 119.7 L579.4 120.0 L581.2 120.2 L583.1 120.4 L585.0 120.5 L586.9 120.5 L588.8 120.5 L590.6 120.5 L592.5 120.5 L594.4 120.5 L596.2 120.5 L598.1 120.5 L600.0 120.5 L601.9 120.5 L603.8 120.5 L605.6 120.5 L607.5 120.5 L609.4 120.4 L611.2 120.2 L613.1 120.0 L615.0 119.7 L616.9 119.3 L618.8 119.0 L620.6 118.6 L622.5 118.3 L624.4 117.9 L626.2 117.5 L628.1 117.1 L630.0 116.6 L631.9 116.1 L633.8 115.7 L635.6 115.3 L637.5 115.1 L639.4 115.0 L641.2 114.9 L643.1 114.8 L645.0 114.7 L646.9 114.4 L648.8 114.2 L650.6 114.0 L652.5 114.0 L654.4 114.2 L656.2 114.4 L658.1 114.7 L660.0 114.8 L661.9 114.9 L663.8 114.9 L665.6 114.8 L667.5 114.6 L669.4 114.3 L671.2 113.9 L673.1 113.3 L675.0 112.6 L676.9 111.6 L678.8 110.4 L680.6 109.3 L682.5 108.3 L684.4 107.5 L686.2 106.9 L688.1 106.5 L690.0 106.2 L691.9 105.9 L693.8 105.9 L695.6 106.1 L697.5 106.9 L699.4 108.2 L701.2 110.1 L703.1 112.3 L705.0 114.3 L706.9 115.9 L708.8 116.9 L710.6 117.3 L712.5 117.4 L714.4 117.2 L716.2 116.9 L718.1 116.6 L720.0 116.4 L721.9 116.1 L723.8 115.8 L725.6 115.5 L727.5 115.3 L729.4 115.1 L731.2 115.0 L733.1 115.0 L735.0 115.0 L736.9 115.0 L738.8 115.0 L740.6 115.0 L742.5 115.0 L744.4 115.0 L746.2 115.0 L748.1 115.0 L750.0 115.1 L751.9 115.2 L753.8 115.4 L755.6 115.9 L757.5 116.4 L759.4 116.9 L761.2 117.3 L763.1 117.5 L765.0 117.4 L766.9 117.0 L768.8 116.2 L770.6 115.0 L772.5 113.6 L774.4 112.4 L776.2 111.5 L778.1 111.1 L780.0 110.9 L781.9 110.8 L783.8 110.8 L785.6 110.8 L787.5 110.8 L789.4 110.8 L791.2 110.9 L793.1 111.0 L795.0 111.1 L796.9 111.4 L798.8 111.6 L800.6 111.9 L802.5 112.1 L804.4 112.1 L806.2 112.2 L808.1 112.1 L810.0 112.1 L811.9 111.9 L813.8 111.6 L815.6 111.4 L817.5 111.1 L819.4 111.0 L821.2 110.8 L823.1 110.8 L825.0 110.7 L826.9 110.5 L828.8 110.2 L830.6 109.9 L832.5 109.6 L834.4 109.3 L836.2 108.9 L838.1 108.6 L840.0 108.3 L841.9 108.2 L843.8 108.1 L845.6 108.0 L847.5 108.0 L849.4 108.0 L851.2 108.0 L853.1 108.0 L855.0 108.0 L856.9 108.0 L858.8 108.0 L860.6 108.0 L862.5 108.0 L864.4 108.0 L866.2 108.0 L868.1 108.0 L870.0 108.0 L871.9 108.0 L873.8 108.0 L875.6 108.0 L877.5 108.0 L879.4 108.0 L881.2 108.0 L883.1 108.0 L885.0 108.0 L886.9 108.0 L888.8 108.0 L890.6 108.0 L892.5 108.1 L894.4 108.2 L896.2 108.3 L898.1 108.6 L900.0 108.9 L901.9 109.1 L903.8 109.3 L905.6 109.4 L907.5 109.6 L909.4 109.8 L911.2 110.1 L913.1 110.6 L915.0 111.1 L916.9 111.5 L918.8 111.8 L920.6 111.9 L922.5 111.8 L924.4 111.6 L926.2 111.4 L928.1 111.3 L930.0 111.4 L931.9 111.8 L933.8 112.4 L935.6 113.0 L937.5 113.7 L939.4 114.2 L941.2 114.6 L943.1 114.8 L945.0 114.9 L946.9 115.0 L948.8 115.0 L950.6 115.0 L952.5 115.0 L954.4 114.9 L956.2 114.8 L958.1 114.7 L960.0 114.4 L961.9 114.1 L963.8 113.9 L965.6 113.7 L967.5 113.6 L969.4 113.6 L971.2 113.5 L973.1 113.3 L975.0 113.1 L976.9 112.8 L978.8 112.7 L980.6 112.7 L982.5 112.8 L984.4 113.1 L986.2 113.4 L988.1 113.8 L990.0 114.1 L991.9 114.6 L993.8 115.0 L995.6 115.4 L997.5 115.8 L999.4 116.0 L1001.2 116.2 L1003.1 116.3 L1005.0 116.4 L1006.9 116.4 L1008.8 116.4 L1010.6 116.3 L1012.5 116.2 L1014.4 115.9 L1016.2 115.5 L1018.1 115.0 L1020.0 114.5 L1021.9 114.0 L1023.8 113.8 L1025.6 113.7 L1027.5 113.6 L1029.4 113.6 L1031.2 113.6 L1033.1 113.6 L1035.0 113.6 L1036.9 113.6 L1038.8 113.6 L1040.6 113.6 L1042.5 113.6 L1044.4 113.5 L1046.2 113.4 L1048.1 113.3 L1050.0 113.0 L1051.9 112.7 L1053.8 112.5 L1055.6 112.2 L1057.5 111.9 L1059.4 111.6 L1061.2 111.2 L1063.1 110.8 L1065.0 110.4 L1066.9 110.0 L1068.8 109.7 L1070.6 109.4 L1072.5 109.2 L1074.4 108.9 L1076.2 108.6 L1078.1 108.3 L1080.0 108.0 L1081.9 107.8 L1083.8 107.5 L1085.6 107.3 L1087.5 107.1 L1089.4 107.1 L1091.2 107.3 L1093.1 107.6 L1095.0 107.9 L1096.9 108.3 L1098.8 108.8 L1100.6 109.4 L1102.5 109.9 L1104.4 110.4 L1106.2 110.6 L1108.1 110.7 L1110.0 110.8 L1111.9 110.8 L1113.8 110.9 L1115.6 111.1 L1117.5 111.6 L1119.4 112.5 L1121.2 114.1 L1123.1 116.3 L1125.0 118.7 L1126.9 120.8 L1128.8 122.2 L1130.6 122.9 L1132.5 123.1 L1134.4 122.9 L1136.2 122.2 L1138.1 120.8 L1140.0 118.7 L1141.9 116.3 L1143.8 114.1 L1145.6 112.6 L1147.5 111.7 L1149.4 111.6 L1151.2 112.2 L1153.1 113.6 L1155.0 115.5 L1156.9 117.7 L1158.8 119.6 L1160.6 120.9 L1162.5 121.5 L1164.4 121.8 L1166.2 121.9 L1168.1 121.8 L1170.0 121.5 L1171.9 120.9 L1173.8 119.6 L1175.6 117.6 L1177.5 115.2 L1179.4 112.8 L1181.2 111.0 L1183.1 109.7 L1185.0 108.9 L1186.9 108.4 L1188.8 108.2 L1190.6 108.1 L1192.5 108.0 L1194.4 108.0 L1196.2 108.0 L1198.1 108.0 L1200 108.0 L1200 400 Z" fill="white"/>
</svg>