<svg xmlns="http://www.w3.org/2000/svg" viewBox="0 0 1200 400">
  <!-- Seattle skyline silhouette — left to right: Puget Sound treeline, Space Needle,
       buildings, Columbia Center, Smith Tower, stadiums area -->
  <path d="
    M0 400 L0 340

    L20 340 L25 330 L35 335 L45 325 L55 330 L60 320 L70 325 L80 315 L90 320 L95 325

    L110 325 L110 310 L115 310 L115 295 L120 295 L120 310 L125 310 L125 325

    L140 325 L140 280 L145 280 L145 260 L148 260 L148 240 L150 240 L150 220
    L152 220 L152 200 L153.5 200 L153.5 180 L155 180 L155 60 L157 60 L157 180
    L158.5 180 L158.5 200 L160 200 L160 220 L162 220 L162 240 L164 240 L164 260
    L167 260 L167 280 L172 280 L172 310
    L148 310 L143 295 L168 295 L163 310
    L175 310 L175 325

    L195 325 L195 280 L200 280 L200 250 L210 250 L210 280 L215 280 L215 325

    L230 325 L230 240 L235 240 L235 200 L240 200 L240 180 L260 180 L260 200
    L265 200 L265 240 L270 240 L270 325

    L280 325 L280 260 L285 260 L285 220 L290 220 L290 200 L310 200 L310 220
    L315 220 L315 260 L320 260 L320 325

    L330 325 L330 230 L340 225 L345 230 L345 280 L355 280 L355 210 L360 205
    L365 210 L365 280 L370 280 L370 325

    L385 325 L385 190 L390 190 L390 160 L395 160 L395 140 L400 140 L400 120
    L405 120 L405 100 L420 100 L420 120 L425 120 L425 140 L430 140 L430 160
    L435 160 L435 190 L440 190 L440 325

    L450 325 L450 200 L455 200 L455 170 L465 170 L465 200 L470 200 L470 325

    L480 325 L480 210 L485 210 L485 180 L490 180 L490 160 L510 160 L510 180
    L515 180 L515 210 L520 210 L520 325

    L535 325 L535 90 L538 90 L538 50 L540 50 L540 30 L542 30 L542 15
    L544 15 L544 30 L546 30 L546 50 L548 50 L548 90 L551 90 L551 325

    L560 325 L560 180 L565 175 L570 180 L570 220 L580 220 L580 150 L585 145
    L590 150 L590 220 L595 220 L595 325

    L610 325 L610 250 L615 250 L615 230 L625 230 L625 250 L630 250 L630 325

    L645 325 L645 200 L650 200 L650 170 L660 170 L660 200 L665 200 L665 325

    L680 325 L680 240 L685 235 L700 235 L705 240 L705 325

    L720 325 L720 270 L725 270 L725 250 L740 250 L740 270 L745 270 L745 325

    L760 325 L760 290 L775 285 L790 290 L790 325

    L810 325 L810 300 L825 295 L840 300 L840 325

    L860 325 L860 310 L870 305 L880 308 L890 310 L890 325

    L910 325 L915 320 L925 322 L935 318 L940 325

    L960 325 L960 330 L970 328 L980 332 L990 325

    L1010 330 L1020 325 L1030 328 L1040 322 L1050 330

    L1060 325 L1070 330 L1080 325 L1090 332 L1100 328

    L1120 335 L1140 330 L1160 335 L1180 332 L1200 340 L1200 400 Z
  " fill="white"/>
</svg>
